<?xml version="1.0" encoding="UTF-8"?>
<svg width="58px" height="90px" viewBox="0 0 58 90" version="1.1" xmlns="http://www.w3.org/2000/svg" xmlns:xlink="http://www.w3.org/1999/xlink">
    <!-- Generator: Sketch 53.2 (72643) - https://sketchapp.com -->
    <title>noun_dress_2261335</title>
    <desc>Created with Sketch.</desc>
    <g id="Page-1" stroke="none" stroke-width="1" fill="none" fill-rule="evenodd">
        <g id="noun_dress_2261335" transform="translate(-1.000000, 0.000000)" fill="#000000" fill-rule="nonzero">
            <path d="M16.3,38 C11.9,32.3 11,25.4 11,14 L11,2 C11,0.9 11.9,0 13,0 C14.1,0 15,0.9 15,2 L15,11.1 C21.6,11.8 27.2,15.9 30,21.6 C32.8,15.9 38.4,11.8 45,11.1 L45,2 C45,0.9 45.9,0 47,0 C48.1,0 49,0.9 49,2 L49,14 C49,25.4 48.1,32.3 43.7,38 L16.3,38 Z M52.7,63.5 C52.7,53 48,45.9 44.3,42 L15.7,42 C12,45.9 7.3,52.9 7.3,63.5 C7.3,78.6 1.5,86.8 1.4,86.8 C0.9,87.4 0.9,88.2 1.2,88.9 C1.5,89.6 2.2,90 3,90 L18,90 L18,74 C18,72.9 18.9,72 20,72 C21.1,72 22,72.9 22,74 L22,90 L28,90 L28,68 C28,66.9 28.9,66 30,66 C31.1,66 32,66.9 32,68 L32,90 L38,90 L38,74 C38,72.9 38.9,72 40,72 C41.1,72 42,72.9 42,74 L42,90 L57,90 C57.8,90 58.5,89.6 58.8,88.9 C59.1,88.2 59.1,87.4 58.6,86.8 C58.5,86.7 52.7,78.6 52.7,63.5 Z" id="Shape"></path>
        </g>
    </g>
</svg>