<?xml version="1.0" encoding="UTF-8"?>
<svg width="99px" height="30px" viewBox="0 0 99 30" version="1.1" xmlns="http://www.w3.org/2000/svg" xmlns:xlink="http://www.w3.org/1999/xlink">
    <!-- Generator: Sketch 53.2 (72643) - https://sketchapp.com -->
    <title>noun_Mustache_82204</title>
    <desc>Created with Sketch.</desc>
    <g id="Page-1" stroke="none" stroke-width="1" fill="none" fill-rule="evenodd">
        <g id="noun_Mustache_82204" fill="currentcolor">
            <path d="M86.778,2.934 C91.401,1.149 93.142,6.312 91.52,10.573 C87.552,21.004 73.915,11.162 67.499,7.266 C63.273,4.696 54.548,-0.354 49.52,2.934 C44.492,-0.354 35.77,4.696 31.542,7.266 C25.127,11.162 11.49,21.004 7.521,10.573 C5.9,6.312 7.64,1.149 12.263,2.934 C3.287,-6.55 -4.564,11.996 4.677,22.646 C14.536,34.01 31.693,29.397 42.459,23.307 C44.377,22.223 47.277,20.073 49.521,17.336 C51.765,20.072 54.667,22.223 56.583,23.307 C67.349,29.397 84.507,34.01 94.367,22.646 C103.606,11.996 95.755,-6.55 86.778,2.934 Z" id="Path"></path>
        </g>
    </g>
</svg>