<?xml version="1.0" encoding="UTF-8"?>
<svg width="94px" height="95px" viewBox="0 0 94 95" version="1.1" xmlns="http://www.w3.org/2000/svg" xmlns:xlink="http://www.w3.org/1999/xlink">
    <!-- Generator: Sketch 53.2 (72643) - https://sketchapp.com -->
    <title>noun_suit_901378_000000</title>
    <desc>Created with Sketch.</desc>
    <g id="Page-1" stroke="none" stroke-width="1" fill="none" fill-rule="evenodd">
        <g id="noun_suit_901378_000000" fill="#000000" fill-rule="nonzero">
            <path d="M93.1,34.4 L86.9,31.3 L86.8,31.2 C86.4,32 85.8,33.2 85.9,33.5 L77.6,36.8 L81.9,45.5 C82.1,45.9 82.1,46.4 81.8,46.7 L47.4,94.6 L12.8,46.6 C12.6,46.3 12.5,45.8 12.7,45.4 L17,36.7 L8.7,33.4 L7.8,31.2 L7.8,31.3 L1.4,34.5 C0.9,34.8 0.7,35.3 0.8,35.8 L17.3,93.8 C17.4,94.3 17.9,94.7 18.4,94.7 L76,94.7 C76.5,94.7 77,94.4 77.1,93.8 L93.6,35.8 C93.8,35.3 93.5,34.7 93.1,34.4 Z" id="Path"></path>
            <path d="M19.1,35.1 C19.4,35.2 19.6,35.4 19.8,35.8 C19.9,35.9 19.9,36.1 19.9,36.3 C19.9,36.4 19.8,36.6 19.8,36.8 L15.2,45.9 L46,89.5 L30.5,34.2 L38.5,23 L41.9,28.4 L38.7,55 L47.4,87.2 L55.9,55 L52.7,28.4 L56.2,23 L64.2,34.2 L48.7,89.6 L79.6,45.9 L75,36.7 C74.9,36.4 74.8,36.1 74.9,35.8 C75,35.5 75.2,35.3 75.6,35.1 L84.1,31.7 L85,29.1 L72.4,14.2 L69.3,4.2 C69.3,4.2 69.3,4.2 69.3,4.1 C69.3,4 69.3,4 69.2,4 C69.2,4 69.2,3.9 69.1,3.9 L69,3.8 L69,3.8 L69,3.7 L68.9,3.6 C68.8,3.6 68.8,3.5 68.8,3.5 C68.8,3.5 68.7,3.5 68.7,3.4 C68.6,3.4 68.6,3.3 68.6,3.3 L68.5,3.3 C68.4,3.3 68.4,3.3 68.4,3.2 L68.3,3.2 C68.3,3.2 68.3,3.2 68.2,3.2 L47.4,0.7 C47.3,0.7 47.3,0.7 47.3,0.7 L47.2,0.7 C47.1,0.7 47.1,0.7 47.1,0.7 L26.3,3.4 L26.2,3.4 C26.1,3.4 26.1,3.4 26.1,3.4 C26.1,3.4 26,3.4 26,3.5 C25.9,3.5 25.9,3.6 25.9,3.6 C25.9,3.6 25.8,3.6 25.8,3.7 C25.7,3.7 25.7,3.8 25.7,3.8 L25.6,3.9 L25.5,4 L25.4,4.1 L25.3,4.2 C25.3,4.2 25.3,4.3 25.2,4.3 C25.2,4.4 25.2,4.4 25.1,4.4 C25.1,4.4 25.1,4.4 25.1,4.5 L22,14.5 L9.4,29.5 L10.4,32 L19.1,35.1 Z M59.1,7.6 L67.4,6 L70.1,14.9 L65,31.4 L57,20.2 L52.5,13.9 L49.3,9.4 L59.1,7.6 Z M27.3,5.9 L35.5,7.5 L45.3,9.4 L42.1,14 L37.6,20.3 L29.7,31.4 L24.6,14.9 L27.3,5.9 Z" id="Shape"></path>
        </g>
    </g>
</svg>