<?xml version="1.0" encoding="UTF-8"?>
<svg width="84px" height="84px" viewBox="0 0 84 84" version="1.1" xmlns="http://www.w3.org/2000/svg" xmlns:xlink="http://www.w3.org/1999/xlink">
    <!-- Generator: Sketch 53.2 (72643) - https://sketchapp.com -->
    <title>noun_suit_567853</title>
    <desc>Created with Sketch.</desc>
    <g id="Page-1" stroke="none" stroke-width="1" fill="none" fill-rule="evenodd">
        <g id="noun_suit_567853" transform="translate(0.000000, -1.000000)" fill="#000000" fill-rule="nonzero">
            <g id="Group" transform="translate(0.000000, 0.637820)">
                <path d="M27,0.36218 L22,7.33093 L34,19.36218 L42,10.36218 L27,0.36218 Z M42,10.36218 L50,19.36218 L62,7.33093 L57,0.36218 L42,10.36218 Z M19.15625,8.64343 L0,17.36218 L20,84.33093 L39.6875,84.36218 L13.28125,40.36218 C12.9021811,39.7411716 12.8902139,38.9633054 13.25,38.33093 L16.25,33.08093 L11,30.08093 C10.0931105,29.5614069 9.73908722,28.4312557 10.1875,27.48718 L19.15625,8.64343 Z M64.84375,8.64343 L73.8125,27.48718 C74.2609128,28.4312557 73.9068895,29.5614069 73,30.08093 L67.75,33.08093 L70.75,38.33093 C71.1097861,38.9633054 71.0978189,39.7411716 70.71875,40.36218 L44.3125,84.36218 L64,84.33093 L84,17.36218 L64.84375,8.64343 Z M22.78125,10.36218 L14.59375,27.51843 L19.96875,30.61218 C20.9238286,31.1580059 21.2588968,32.3726282 20.71875,33.33093 L17.3125,39.33093 L40.21875,77.45593 L22.78125,10.36218 Z M61.21875,10.36218 L43.78125,77.45593 L66.6875,39.33093 L63.28125,33.33093 C62.7411032,32.3726282 63.0761714,31.1580059 64.03125,30.61218 L69.40625,27.51843 L61.21875,10.36218 Z" id="Shape"></path>
            </g>
        </g>
    </g>
</svg>