<svg xmlns="http://www.w3.org/2000/svg" xmlns:xlink="http://www.w3.org/1999/xlink" xml:space="preserve" style="shape-rendering:geometricPrecision;text-rendering:geometricPrecision;image-rendering:optimizeQuality;" viewBox="0 0 0.298299 0.22433999999999998" x="0px" y="0px" fill-rule="evenodd" clip-rule="evenodd"><g><path fill="currentcolor" d="M0.190854 0.112043c0.0347717,0.0579252 0.136925,0.130142 0.0803819,-0.030063 0.0747835,-0.122272 -0.0230433,-0.0861969 -0.0797441,-0.0304409l-0.000141732 0.0134843c0.0159724,-0.00335433 0.0411614,-0.0183622 0.0567677,-0.0250315 -0.014248,0.00996063 -0.0404055,0.0266811 -0.0568386,0.0319606l-0.000137795 0.0131457c0.0164843,0.00527953 0.0450512,0.0306811 0.0593386,0.0406693 -0.0156969,-0.00670472 -0.0433268,-0.0304173 -0.0594134,-0.0337559l-0.000212598 0.0200315z"/><path fill="currentcolor" d="M0.185126 0.116421c0.00124803,0 0.00226772,-0.00297638 0.00226772,-0.00661811l0 -0.0565433c0,-0.00364173 -0.00101969,-0.00661811 -0.00226772,-0.00661811 -0.0239803,0 -0.0479724,0 -0.0719567,0 -0.00124803,0 -0.00226772,0.00297638 -0.00226772,0.00661811l0 0.0565433c0,0.00364173 0.00101969,0.00661811 0.00226772,0.00661811 0.0239843,0 0.0479764,0 0.0719567,0z"/><path fill="currentcolor" d="M0.107445 0.112043c-0.0347717,0.0579252 -0.136925,0.130142 -0.0803858,-0.030063 -0.0747795,-0.122272 0.0230472,-0.0861969 0.0797441,-0.0304409l0.000141732 0.0134843c-0.0159724,-0.00335433 -0.0403701,-0.0175748 -0.0559803,-0.0242441 0.014252,0.00996063 0.0396181,0.0258937 0.0560551,0.0311732l0.000137795 0.0131457c-0.0164882,0.00527953 -0.0363898,0.0291063 -0.0506811,0.0390945 0.0157008,-0.00670472 0.0346654,-0.0288425 0.0507559,-0.0321811l0.000212598 0.0200315z"/></g><text x="0" y="15.179472" fill="currentcolor" font-size="5px" font-weight="bold" font-family="'Helvetica Neue', Helvetica, Arial-Unicode, Arial, Sans-serif">Created by abdul wahhab</text><text x="0" y="20.179472" fill="currentcolor" font-size="5px" font-weight="bold" font-family="'Helvetica Neue', Helvetica, Arial-Unicode, Arial, Sans-serif">from the Noun Project</text></svg>