<?xml version="1.0" encoding="utf-8"?>
<!--Designed by Vexels.com - 2017 All Rights Reserved - https://vexels.com/terms-and-conditions/-->

<svg version="1.1" id="Layer_1" xmlns="http://www.w3.org/2000/svg" xmlns:xlink="http://www.w3.org/1999/xlink" x="0px" y="0px" viewBox="0 0 1200 1200" enable-background="new 0 0 1200 1200" xml:space="preserve">
<g>
	<g>
		<path fill="currentcolor" d="M441.998,505.405c-82.805,29.314-202.176,68.488-282.295,81.478c-6.209,1.004-12.172,1.764-17.852,2.268
			c-5.668,0.505-11.049,0.764-16.096,0.764c-20.047,0-35.369-4.004-45.682-11.942c-4.607-8.077-5.229-15.733-1.756-21.672
			c5.564-9.462,20.898-14.637,41.021-13.822c6.053,0.246,12.354,0.361,18.885,0.361C225.586,542.839,353.773,521.99,441.998,505.405
			z"/>
		<path fill="currentcolor" d="M490.43,453.965c-15.213,0.264-32.65,0.68-46.6-6.365c-1.547-0.777-0.283-3.027,0.988-3.264
			c28.324-5.268,56.977-5.068,85.641-4.859c-0.029-3.134-0.045-6.305-0.039-9.448c-24.318-0.953-48.689-1.634-72.871-4.457
			c-25.578-2.99-52.246-7.744-74.527-21.381c-1.703-1.046,0.023-3.352,1.486-3.402c32.246-1.064,64.529-0.135,96.711,2.06
			c12.328,0.843,24.717,0.556,37.025,1.509c4.305,0.338,8.766,0.76,13.008,1.843c0.496-4.564,1.242-9.045,2.123-13.304
			c-5.926-3.693-13.896-5.79-19.77-7.883c-9.535-3.397-19.342-6.133-28.781-9.79c-26.492-10.258-51.408-27.223-79.904-31.49
			c-2.338-0.347-1.463-3.935,0.723-3.777c26.941,1.939,53.111,8.42,78.977,15.919c11.785,3.416,23.506,7.193,35.377,10.29
			c5.947,1.551,12.648,2.819,18.678,5.198l2.109-4.847c-0.982-0.772-2.105-1.661-3.383-2.685
			C364.215,225.872,254.652,196.919,193.236,196.919c-9.111,0-17.98,0.647-26.355,1.911c-61.945,9.332-99.65,23.427-112.08,41.887
			c-7.346,10.892-4.725,21.825-2.182,32.389c1.059,4.411,2.066,8.582,2.193,12.544c0.195,5.124,1.77,14.78,3.758,27
			c6.363,39.05,17,104.399,9.758,176.31c-0.348,3.328-0.994,7.318-1.756,11.929c-2.297,13.877-5.369,32.476-2.389,49.001
			c0.246-0.481,0.506-0.958,0.787-1.435c8.623-14.688,28.67-22.516,54.988-21.455c123.928,5.013,368.869-46.247,411.246-55.361
			c-0.172-4.772-0.391-11.771-0.555-19.683C517.295,453.062,503.771,453.733,490.43,453.965z"/>
		<path fill="currentcolor" d="M534.26,388.859c0.311-1.333,0.631-2.647,0.959-3.926l-3.525,2.635
			C532.57,387.976,533.434,388.401,534.26,388.859z"/>
	</g>
	<g>
		<path fill="currentcolor" d="M650.73,420.188c-0.721,7.888-1.793,15.178-2.813,22.242c-2.117,14.456-3.938,26.936-1.383,37.262
			c2.75,11.142-1.393,23.996-6.607,26.307c-2.697,1.147-17.09,2.504-36.168,1.124c-23.506-1.68-33.213-5.989-35.07-8.026
			c-8.377-9.229-17.943-19.932-21.881-24.348c-0.346-9.072-1.328-38.633-0.684-59.583c0.621-19.631,8.004-39.817,10.494-46.104
			c2.117-1.125,6.533-2.509,11.707,1.199c10.871,7.781,21.842,5.268,30.658,3.24c3.949-0.903,7.666-1.755,11.242-1.796
			c4.66-0.051,9.539-0.542,14.262-1.019c6.713-0.671,15.852-1.588,19.066-0.014C647.389,374.273,652.85,396.798,650.73,420.188z"/>
	</g>
	<g>
		<path fill="currentcolor" d="M1134.531,217.031c-17.053-21.803-49.592-33.73-102.396-37.55c-35.68-2.569-111.99,30-220.701,94.202
			c-69.908,41.28-132.576,83.588-150.969,96.165c1.791,4.564,3.164,9.947,4.16,15.673c20.059-10.174,40.492-19.487,62.521-24.681
			c14.727-3.477,71.242-18.187,84.846-21.881c2.096-0.569,2.938,2.264,1.018,3.106c-12.721,5.573-25.967,9.229-39.391,12.252
			c-36.811,12.554-72.777,28.052-107.293,45.817c0.387,5.994,0.416,11.938,0.119,17.362c42.654-4.749,83.715-20.867,127.111-18.923
			c1.891,0.088,2.984,2.556,0.691,3.083c-43.568,10.017-87.818,18.636-129.771,34.31c-0.412,3.022-0.836,5.934-1.236,8.692
			c-0.055,0.37-0.107,0.736-0.162,1.102c36.275,0.843,73.393,10.17,109.047,1.084c2.486-0.635,2.859,2.43,0.857,3.411
			c-19.918,9.771-42.998,13.817-64.988,15.063c-15.385,0.87-31.605,0.754-47.021-2.314c-0.084,1.176-0.154,2.328-0.186,3.43
			c6.002,4.301,24.887,16.122,70.141,32.272c152.688,54.454,295.539,42.826,356.541,37.855c18.742-1.519,26.525-2.102,31.031-1.135
			c4.105,0.903,7.668,2.699,10.596,5.342c-0.115-7.29-0.863-15.446-1.703-24.88c-0.502-5.592-1.02-11.35-1.457-17.622
			c-3.357-46.872,4.182-97.804,20.936-195.023C1153.57,264.403,1149.531,236.213,1134.531,217.031z"/>
		<path fill="currentcolor" d="M1122.334,571.751c-3.395,5.666-8.365,11.091-15.438,16.701c-13.527,10.729-62.451,22.528-141.781,11.039
			c-57.904-8.378-147.318-31.638-258.996-93.53c5.949,2.337,12.471,4.786,19.607,7.332
			c155.824,55.579,300.998,43.757,362.996,38.711c12.273-0.995,23.879-1.953,26.486-1.435c2.297,0.504,3.871,1.615,5.098,3.615
			C1123.586,559.554,1122.914,568.756,1122.334,571.751z"/>
	</g>
	<g>
		<path fill="currentcolor" d="M557.227,509.511c-0.859-0.944-1.732-1.907-2.609-2.874c-4.908,15.576-17.801,31.272-24.885,43.886
			c-12.588,22.413-25.088,45.15-43.617,63.296c-2.719,2.661-6.891,0.656-5.307-3.194c17.25-41.975,46.393-78.626,55.936-123.549
			c-6.166,2.365-17.518,6.684-32.736,12.331c-1.691,5.212-5.396,10.642-7.385,14.303c-4.918,9.055-10.131,17.914-15.551,26.672
			c-17.244,27.861-35.73,56-61.674,76.57c-2.594,2.056-6.467-1.092-4.506-3.957c13.613-19.899,28.023-39.304,40.783-59.772
			c8.895-14.271,15.623-29.921,23.584-44.729c-14.68,5.333-31.344,11.29-49.344,17.563h-0.012
			c-5.436,5.994-31.225,37.271-58.424,70.271c-29.596,35.888-66.422,80.547-95.955,115.671
			c-51.902,61.713-115.514,115.356-135.094,131.387l139.365,177.276c18.459-9.938,81.605-48.803,132.707-138.876
			c98.164-173.004,139.752-338.792,147.059-370.143C558.686,510.969,557.898,510.256,557.227,509.511z"/>
	</g>
	<g>
		<path fill="currentcolor" d="M1088.309,838.712c-13.631-10.226-83.85-80.246-140.348-137.187
			c-28.049-28.254-58.537-59.193-83.682-84.865c-11.102-11.336-20.42-20.913-26.99-27.689c-3.24-3.37-5.785-6.018-7.514-7.837
			c-0.514-0.556-1.031-1.098-1.521-1.639c-9.824-3.625-19.945-7.578-30.342-11.883c2.703,6.124,4.754,12.915,6.576,17.058
			c10.432,23.699,24.758,45.835,36.289,69.044c1.521,3.064-3.281,6.828-5.666,4.161c-16.49-18.437-32.912-37.012-48.201-56.463
			c-13.441-17.099-31.045-35.692-38.887-56.25c-15.441-7.494-31.369-15.715-47.773-24.773c12.68,20.742,22.123,44.553,32.684,66.234
			c6.316,12.966,12.678,25.927,19.455,38.66c6.426,12.082,14.869,23.492,20.383,35.957c1.42,3.218-3.516,6.86-5.795,3.806
			c-21.092-28.269-42.813-56.209-61.893-85.912c-10.316-16.058-19.51-32.749-29.213-49.182
			c-4.783-8.096-11.652-16.896-15.959-25.986c-1.373,3.685-3.184,7.087-5.527,9.883c8.83,34.036,69.432,261.91,137.57,369.693
			c10.004,15.822,18.641,30.218,26.268,42.919c24.76,41.239,39.705,66.124,59.197,70.258c21.324,4.518,54.354-14.859,104.203-49.867
			c71.432-50.158,115.746-83.936,115.953-97.4C1097.615,846.757,1095.02,843.748,1088.309,838.712z"/>
	</g>
</g>
</svg>
